<svg width="60" height="60" viewBox="0 0 60 60" fill="none" xmlns="http://www.w3.org/2000/svg">
<path d="M54.9254 60H5.07463C2.38806 60 0 57.6119 0 54.9254V5.07463C0 2.38806 2.38806 0 5.07463 0H54.9254C57.6119 0 60 2.38806 60 5.07463V54.9254C60 57.6119 57.6119 60 54.9254 60Z" fill="#00A76E"/>
<path d="M43.1751 16.2301H37.5839C37.0247 16.2301 36.4656 16.7907 36.4656 17.3513L33.9496 26.0405C33.9496 26.3208 33.67 26.3208 33.3904 26.3208H25.0036C24.724 26.3208 24.724 26.0405 24.724 26.0405L26.9605 17.3513C27.2401 16.7907 26.9605 16.2301 26.4014 16.2301H20.8102C20.5306 16.2301 19.9715 16.7907 19.6919 17.3513L12.9825 42.2978C12.9825 42.8584 13.262 43.419 13.8212 43.419H19.4124C19.9715 43.419 20.5306 42.8584 20.8102 42.2978L23.3262 33.3283C23.3783 33.2232 23.3762 33.0904 23.5141 33.048H31.7131C31.9926 33.048 31.9926 33.3283 31.9926 33.3283L29.7561 42.2978C29.4766 42.8584 29.7561 43.419 30.3153 43.419H35.9065C36.4656 43.419 37.0247 42.8584 37.3043 42.2978L44.0138 17.071C44.0138 16.7907 43.7342 16.2301 43.1751 16.2301Z" fill="white"/>
<path d="M46.2501 37.8128H43.175C42.3363 37.8128 41.7772 38.3734 41.4976 39.2143L40.9385 42.0173C40.6589 42.8582 41.218 43.4188 41.7772 43.4188H44.8523C45.691 43.4188 46.2501 42.8582 46.5297 42.0173L47.3684 38.934C47.3684 38.3734 47.0888 37.8128 46.2501 37.8128Z" fill="white"/>
</svg>
