<svg width="19" height="20" viewBox="0 0 19 20" fill="none" xmlns="http://www.w3.org/2000/svg">
<path fill-rule="evenodd" clip-rule="evenodd" d="M12.827 2.14027C11.2168 1.38508 9.41792 1.19799 7.69851 1.60691C5.9791 2.01584 4.43133 2.99886 3.28604 4.40938C2.14074 5.8199 1.45928 7.58234 1.3433 9.43384C1.22732 11.2853 1.68302 13.1267 2.64245 14.6833C3.60187 16.2399 5.01362 17.4284 6.66713 18.0714C8.32064 18.7145 10.1273 18.7776 11.8177 18.2515C13.5081 17.7254 14.9917 16.6382 16.0472 15.1521C17.1026 13.6659 17.6734 11.8604 17.6744 10.0049V9.14951C17.6744 8.76419 17.9712 8.45183 18.3372 8.45183C18.7033 8.45183 19 8.76419 19 9.14951V10.0053C18.9988 12.1617 18.3355 14.2604 17.1089 15.9875C15.8823 17.7147 14.1581 18.9782 12.1936 19.5896C10.2291 20.201 8.12939 20.1276 6.20775 19.3803C4.2861 18.633 2.64542 17.2518 1.53041 15.4428C0.415403 13.6338 -0.114198 11.4938 0.0205929 9.34204C0.155384 7.19029 0.947346 5.14205 2.27837 3.5028C3.60938 1.86354 5.40814 0.721106 7.40638 0.24587C9.40461 -0.229366 11.4953 -0.0119393 13.3665 0.865724C13.7009 1.02255 13.8511 1.435 13.7022 1.78695C13.5532 2.13891 13.1614 2.2971 12.827 2.14027Z" fill="#18AF7C"/>
<path fill-rule="evenodd" clip-rule="evenodd" d="M18.8078 1.87319C19.0638 2.14873 19.064 2.59569 18.8083 2.8715L10.0726 12.293C9.94977 12.4255 9.7831 12.5 9.60928 12.5C9.43546 12.5001 9.26875 12.4257 9.14584 12.2933L6.52515 9.46963C6.26929 9.19396 6.26929 8.747 6.52515 8.47133C6.78101 8.19565 7.19584 8.19565 7.4517 8.47133L9.60888 10.7956L17.8812 1.87369C18.137 1.59788 18.5518 1.59766 18.8078 1.87319Z" fill="#18AF7C"/>
</svg>
